<svg width="470" height="470" viewBox="0 0 470 470" fill="none" xmlns="http://www.w3.org/2000/svg">
<path d="M236.05 469.667C106.075 469.667 0.333008 363.925 0.333008 233.95C0.337986 177.146 20.8527 122.253 58.104 79.3687C95.3553 36.4842 146.838 8.49182 203.083 0.540005C207.591 -0.0909098 212.183 0.736904 216.188 2.90242C220.192 5.06794 223.398 8.4576 225.338 12.5758C227.278 16.6941 227.85 21.3249 226.97 25.7913C226.09 30.2578 223.804 34.3256 220.447 37.4C205.085 51.4846 192.814 68.6049 184.411 87.6772C176.008 106.75 171.656 127.359 171.63 148.2C171.63 231 239 298.37 321.8 298.37C342.641 298.344 363.25 293.992 382.323 285.589C401.395 277.186 418.515 264.915 432.6 249.553C435.674 246.195 439.742 243.908 444.209 243.028C448.676 242.147 453.307 242.719 457.426 244.659C461.545 246.599 464.935 249.806 467.1 253.811C469.266 257.816 470.094 262.408 469.462 266.917C461.51 323.162 433.518 374.645 390.633 411.896C347.749 449.147 292.856 469.662 236.052 469.667H236.05ZM149.7 61.33C86.089 93.377 43 159.578 43 233.95C43 340.4 129.6 427 236.05 427C310.422 427 376.623 383.911 408.67 320.3C381.733 333.91 351.98 341.012 321.8 341.036C215.468 341.036 128.959 254.528 128.959 148.195C128.985 118.016 136.089 88.2647 149.7 61.33V61.33Z" fill="white"/>
</svg>
