<svg width="58" height="58" viewBox="0 0 58 58" fill="none" xmlns="http://www.w3.org/2000/svg">
<path fill-rule="evenodd" clip-rule="evenodd" d="M11.4597 7.63977C8.82259 7.63977 6.68481 9.77754 6.68481 12.4146V43.0535C6.68481 43.0558 6.68482 43.058 6.68484 43.0602V45.8386C6.68484 48.4757 8.82262 50.6135 11.4597 50.6135H44.8837C47.5208 50.6135 49.6585 48.4757 49.6585 45.8386V17.1895C49.6585 14.5524 47.5208 12.4146 44.8837 12.4146H16.2345V12.4146C16.2345 9.77755 14.0967 7.63977 11.4597 7.63977ZM8.1173 43.7282C8.21568 43.647 8.2969 43.5438 8.35296 43.4236L8.88305 42.2877C9.90409 40.0998 13.0153 40.0998 14.0363 42.2877L14.5664 43.4236C14.7102 43.7317 15.0194 43.9287 15.3594 43.9287C15.8427 43.9287 16.2345 43.5369 16.2345 43.0535V13.8471H44.8837C46.7296 13.8471 48.2261 15.3435 48.2261 17.1895V45.8386C48.2261 47.6846 46.7296 49.181 44.8837 49.181H11.4597C9.61374 49.181 8.1173 47.6846 8.1173 45.8386V43.7282Z" fill="black"/>
<rect x="22.6806" y="17.9057" width="17.667" height="10.0272" rx="1.19371" stroke="black" stroke-width="1.43246"/>
<line x1="23.133" y1="18.6724" x2="40.3224" y2="27.2671" stroke="black" stroke-width="0.954971"/>
<line x1="22.7099" y1="27.1046" x2="39.9787" y2="18.6704" stroke="black" stroke-width="0.954971"/>
<rect x="21.9644" y="31.514" width="6.6848" height="0.954971" rx="0.477485" fill="black"/>
<rect x="34.3789" y="37.2439" width="6.6848" height="0.954971" rx="0.477485" fill="black"/>
<rect x="21.9644" y="34.379" width="1.90994" height="0.954971" rx="0.477485" fill="black"/>
<rect x="24.8292" y="34.379" width="1.90994" height="0.954971" rx="0.477485" fill="black"/>
<rect x="27.6942" y="34.379" width="13.3696" height="0.954971" rx="0.477485" fill="black"/>
<rect x="29.6041" y="31.514" width="11.4597" height="0.954971" rx="0.477485" fill="black"/>
<rect x="21.9644" y="37.2439" width="11.4597" height="0.954971" rx="0.477485" fill="black"/>
<rect x="37.0052" y="5.49101" width="15.757" height="27.2167" rx="1.19371" fill="black" stroke="black" stroke-width="1.43246"/>
<rect x="38.1989" y="8.59473" width="13.3696" height="9.54971" rx="1.90994" fill="#C4C4C4" fill-opacity="0.01"/>
<rect x="38.9151" y="9.31095" width="11.9371" height="8.11725" rx="1.19371" stroke="white" stroke-opacity="0.5" stroke-width="1.43246"/>
<path d="M40.1089 10.5046L44.8837 13.3696M49.6586 10.5046L44.8837 13.3696M44.8837 13.3696L40.1089 16.2345M44.8837 13.3696L49.6586 16.2345" stroke="white" stroke-opacity="0.5" stroke-width="0.954971" stroke-linecap="round"/>
<rect x="39.1539" y="23.8741" width="6.6848" height="0.954971" rx="0.477485" fill="#FDFDFD" fill-opacity="0.5"/>
<rect x="39.1539" y="26.7391" width="11.4597" height="0.954971" rx="0.477485" fill="#FDFDFD" fill-opacity="0.5"/>
<rect x="39.1539" y="21.0093" width="3.81988" height="0.954971" rx="0.477485" fill="#FDFDFD" fill-opacity="0.5"/>
<rect x="43.9287" y="21.0093" width="6.6848" height="0.954971" rx="0.477485" fill="#FDFDFD" fill-opacity="0.5"/>
<rect x="46.7936" y="23.8741" width="3.81988" height="0.954971" rx="0.477485" fill="#FDFDFD" fill-opacity="0.5"/>
<circle cx="44.9314" cy="30.7977" r="1.19371" fill="#FDFDFD" fill-opacity="0.5"/>
<circle cx="44.8836" cy="5.92072" r="0.477485" fill="#FDFDFD" fill-opacity="0.5"/>
</svg>
