<svg width="58" height="58" viewBox="0 0 58 58" fill="none" xmlns="http://www.w3.org/2000/svg">
<path d="M26.0976 2.47977C26.4333 2.47977 26.7243 2.60287 26.9705 2.84907C27.239 3.09528 27.3733 3.39744 27.3733 3.75555V14.6333C27.3733 17.0282 26.5116 18.9083 24.7882 20.2736C23.311 21.4822 21.5316 22.0865 19.4501 22.0865C17.3461 22.0865 15.5668 21.4822 14.1119 20.2736C12.4109 18.8859 11.5604 17.0058 11.5604 14.6333V3.75555C11.5604 3.41982 11.6835 3.12885 11.9297 2.88265C12.1759 2.61406 12.4668 2.47977 12.8026 2.47977C13.1383 2.47977 13.4293 2.60287 13.6755 2.84907C13.9441 3.09528 14.0783 3.39744 14.0783 3.75555V14.7004C14.0783 16.3343 14.6379 17.6101 15.757 18.5278C16.7866 19.3783 18.0176 19.8035 19.4501 19.8035C20.9049 19.8035 22.1471 19.3783 23.1767 18.5278C24.2958 17.5877 24.8553 16.3119 24.8553 14.7004V3.75555C24.8553 3.41982 24.9784 3.12885 25.2246 2.88265C25.4709 2.61406 25.7618 2.47977 26.0976 2.47977ZM46.8458 20.005C47.0025 20.2064 47.0808 20.4638 47.0808 20.7772C47.0808 21.0681 46.9689 21.3367 46.7451 21.5829C46.5212 21.8291 46.2639 21.9522 45.9729 21.9522C45.4805 21.9522 45.1 21.7844 44.8314 21.4486L38.9561 14.0289L33.1479 21.4822C32.8793 21.7955 32.5772 21.9522 32.2414 21.9522C31.9057 21.9522 31.6147 21.8403 31.3685 21.6165C31.1447 21.3927 31.0328 21.1353 31.0328 20.8443C31.0328 20.531 31.1111 20.2512 31.2678 20.005L37.6467 12.216L31.335 4.46059C31.1783 4.23677 31.1 3.96818 31.1 3.65483C31.1 3.34148 31.2119 3.0729 31.4357 2.84907C31.6819 2.60287 31.9952 2.47977 32.3757 2.47977C32.7786 2.47977 33.092 2.64764 33.3158 2.98337L39.124 10.3359L44.9321 2.94979C45.1336 2.65883 45.4133 2.51334 45.7714 2.51334C46.1296 2.49096 46.4317 2.60287 46.6779 2.84907C46.9241 3.0729 47.0472 3.33029 47.0472 3.62126C47.0472 3.88984 46.9801 4.13605 46.8458 4.35987L40.4669 12.216L46.8458 20.005Z" fill="black"/>
<path d="M28.8237 31.6593C29.1594 31.6593 29.4504 31.7824 29.6966 32.0286C29.9651 32.2748 30.0994 32.5769 30.0994 32.9351V43.8128C30.0994 46.2077 29.2377 48.0878 27.5143 49.4531C26.0371 50.6617 24.2577 51.266 22.1762 51.266C20.0722 51.266 18.2929 50.6617 16.838 49.4531C15.137 48.0654 14.2865 46.1853 14.2865 43.8128V32.9351C14.2865 32.5993 14.4096 32.3084 14.6558 32.0622C14.902 31.7936 15.1929 31.6593 15.5287 31.6593C15.8644 31.6593 16.1554 31.7824 16.4016 32.0286C16.6702 32.2748 16.8044 32.5769 16.8044 32.9351V43.8799C16.8044 45.5138 17.364 46.7896 18.4831 47.7073C19.5127 48.5578 20.7437 48.983 22.1762 48.983C23.631 48.983 24.8732 48.5578 25.9028 47.7073C27.0219 46.7672 27.5814 45.4914 27.5814 43.8799V32.9351C27.5814 32.5993 27.7045 32.3084 27.9507 32.0622C28.197 31.7936 28.4879 31.6593 28.8237 31.6593ZM41.6352 31.6593C41.9709 31.6593 42.2619 31.7824 42.5081 32.0286C42.7767 32.2748 42.911 32.5769 42.911 32.9351V49.8895C42.911 50.2253 42.7879 50.5162 42.5417 50.7624C42.2955 51.0086 41.9933 51.1317 41.6352 51.1317C41.2995 51.1317 41.0085 51.0086 40.7623 50.7624C40.5161 50.5162 40.393 50.2253 40.393 49.8895V32.9351C40.393 32.5993 40.5161 32.3084 40.7623 32.0622C41.0085 31.7936 41.2995 31.6593 41.6352 31.6593Z" fill="black"/>
<line x1="50.6134" y1="27.2558" x2="7.63971" y2="27.2558" stroke="black" stroke-width="1.90994"/>
</svg>
