<svg width="58" height="58" viewBox="0 0 58 58" fill="none" xmlns="http://www.w3.org/2000/svg">
<path d="M21.9099 41.4565C21.9099 41.6952 21.8105 41.9141 21.6115 42.113C21.4324 42.2921 21.2335 42.3816 21.0146 42.3816C20.7958 42.3816 20.6366 42.3518 20.5372 42.2921L10.7785 37.9052C10.1817 37.6267 9.89321 37.2089 9.91311 36.6518V36.4429C9.91311 35.8659 10.2016 35.4481 10.7785 35.1895L20.5372 30.8026C20.6565 30.7628 20.8157 30.7429 21.0146 30.7429C21.2335 30.723 21.4324 30.8126 21.6115 31.0115C21.8105 31.2105 21.9099 31.4293 21.9099 31.668C21.9099 32.1455 21.6911 32.4639 21.2534 32.623L12.4497 36.5623L21.2534 40.4717C21.4523 40.5513 21.6115 40.6806 21.7309 40.8596C21.8502 41.0188 21.9099 41.2178 21.9099 41.4565ZM30.9225 25.789C31.0617 25.3314 31.39 25.1026 31.9073 25.1026C32.1858 25.1026 32.4146 25.2021 32.5937 25.401C32.7926 25.6 32.8921 25.7791 32.8921 25.9382C32.8921 26.1969 32.8623 26.3759 32.8026 26.4754L26.3267 45.4256C26.1874 45.8832 25.8691 46.112 25.3717 46.112C25.0932 46.112 24.8544 46.0125 24.6555 45.8136C24.4565 45.6146 24.357 45.4256 24.357 45.2465C24.357 45.0078 24.3869 44.8387 24.4466 44.7392L30.9225 25.789ZM36.6821 42.2921C36.5628 42.3319 36.3937 42.3617 36.1748 42.3816C35.9759 42.3816 35.7769 42.2921 35.578 42.113C35.3989 41.9141 35.3094 41.6952 35.3094 41.4565C35.3094 40.979 35.5282 40.6507 35.9659 40.4717L44.7994 36.5623L35.9659 32.623C35.767 32.5434 35.6078 32.4241 35.4884 32.2649C35.3691 32.0858 35.3094 31.8869 35.3094 31.668C35.3094 31.4293 35.3989 31.2105 35.578 31.0115C35.7769 30.8126 35.9759 30.7131 36.1748 30.7131C36.3738 30.7131 36.5429 30.7429 36.6821 30.8026L46.4407 35.1895C47.0376 35.468 47.3261 35.8858 47.3062 36.4429V36.6518C47.3062 37.2288 47.0177 37.6466 46.4407 37.9052L36.6821 42.2921Z" fill="black"/>
<line x1="3.81995" y1="15.757" x2="53.4784" y2="15.757" stroke="black" stroke-width="2.86491"/>
<line x1="36.2889" y1="9.07224" x2="50.6135" y2="9.07224" stroke="black" stroke-width="2.86491"/>
<circle cx="9.07223" cy="9.07223" r="1.43246" fill="black"/>
<circle cx="12.8922" cy="9.07223" r="1.43246" fill="black"/>
<circle cx="16.712" cy="9.07223" r="1.43246" fill="black"/>
<rect x="1.43246" y="1.43246" width="54.4333" height="54.4333" rx="8.11725" stroke="black" stroke-width="2.86491"/>
</svg>
